#!OML:ASF E:\Steps\Project 1\Capture day 1\Session 2\Subject.ASF
:FULLY-SPECIFIED
:DEGREES
362
root 13.5396 15.9305 12.3177 31.2309 -158.52 359.483
lowerback -12.4297 -2.64394 -3.5849
upperback -1.00608 -3.09519 -1.81606
thorax 5.99371 -1.66816 -0.440571
lowerneck 0.627211 0.299183 -3.5471
upperneck 9.00664 -0.412696 6.62501
head 2.81754 -0.284608 2.78507
rclavicle -2.74323e-014 -3.4191e-014
rhumerus -28.6893 -4.59691 -92.6814
rradius 43.3127
rwrist -10.6403
rhand -8.08374 -52.4843
rfingers 7.12502
rthumb 17.8283 -81.687
lclavicle -2.74323e-014 -3.4191e-014
lhumerus -36.7795 12.2828 76.7698
lradius 13.7915
lwrist -10.5782
lhand -26.6413 -21.3653
lfingers 7.12502
lthumb -0.0736019 8.61439
rfemur -52.706 13.1863 15.0212
rtibia 32.6323
rfoot -25.1723 -5.93955
rtoes -39.0952
lfemur -47.2204 -6.85088 -17.6351
ltibia 49.9983
lfoot -22.6164 16.2068
ltoes -32.2477
363
root 13.538 15.933 12.3214 31.208 -158.691 359.485
lowerback -12.3242 -2.67694 -3.65261
upperback -0.974322 -3.13262 -1.79933
thorax 5.974 -1.68756 -0.387436
lowerneck 0.663202 0.317976 -3.56194
upperneck 9.01385 -0.389134 6.60949
head 2.81184 -0.275225 2.78273
rclavicle -3.97569e-016 7.15625e-015
rhumerus -28.5619 -4.5049 -92.6207
rradius 42.9176
rwrist -10.6797
rhand -8.6608 -52.3554
rfingers 7.12502
rthumb 17.2729 -81.6078
lclavicle -3.97569e-016 7.15625e-015
lhumerus -36.0839 11.6896 77.1854
lradius 14.0952
lwrist -10.0654
lhand -26.7567 -21.5583
lfingers 7.12502
lthumb -0.185097 8.42141
rfemur -52.8438 13.2449 14.9748
rtibia 32.9001
rfoot -25.3752 -5.91273
rtoes -39.1179
lfemur -47.6601 -7.10013 -17.3359
ltibia 50.1718
lfoot -22.2089 15.999
ltoes -33.7204
364
root 13.5354 15.9341 12.323 31.1184 -158.883 359.517
lowerback -12.226 -2.67929 -3.70171
upperback -0.92223 -3.12899 -1.80513
thorax 5.97676 -1.68614 -0.362207
lowerneck 0.682004 0.32605 -3.56292
upperneck 9.01358 -0.379564 6.60461
head 2.80763 -0.271477 2.78122
rclavicle 7.95139e-016 -4.77083e-015
rhumerus -28.3942 -4.47765 -92.568
rradius 42.4455
rwrist -10.7284
rhand -8.69837 -52.1638
rfingers 7.12502
rthumb 17.2368 -81.4194
lclavicle 7.95139e-016 -4.77083e-015
lhumerus -35.4542 10.7389 77.7248
lradius 14.476
lwrist -9.39354
lhand -27.0432 -21.2673
lfingers 7.12502
lthumb -0.46186 8.71194
rfemur -52.3797 13.4708 14.8808
rtibia 32.0321
rfoot -25.0116 -5.93881
rtoes -39.2702
lfemur -47.9424 -7.35452 -16.9675
ltibia 50.0765
lfoot -21.6955 15.7445
ltoes -34.7526
365
root 13.5345 15.9382 12.3258 31.0327 -159.11 359.538
lowerback -12.0886 -2.6677 -3.77601
upperback -0.859097 -3.10421 -1.81822
thorax 5.96966 -1.67475 -0.325206
lowerneck 0.637244 0.325139 -3.58106
upperneck 9.01259 -0.378495 6.61067
head 2.81577 -0.270089 2.78713
rclavicle 6.24184e-014 2.22639e-014
rhumerus -28.2057 -4.80534 -92.4525
rradius 42.0292
rwrist -10.468
rhand -8.2632 -51.9142
rfingers 7.12502
rthumb 17.6556 -81.1326
lclavicle 6.24184e-014 2.22639e-014
lhumerus -34.7749 9.92965 78.1307
lradius 14.7462
lwrist -9.07621
lhand -27.2152 -20.7136
lfingers 7.12502
lthumb -0.62797 9.2652
rfemur -52.2688 13.6451 14.8464
rtibia 31.8813
rfoot -24.9434 -6.08611
rtoes -40.2754
lfemur -48.1911 -7.60472 -16.5767
ltibia 49.9016
lfoot -21.4067 15.2666
ltoes -34.5887
366
root 13.5331 15.9448 12.3306 30.9922 -159.333 359.54
lowerback -11.933 -2.66343 -3.83424
upperback -0.803493 -3.09305 -1.84484
thorax 5.94306 -1.66974 -0.312615
lowerneck 0.572039 0.317966 -3.60616
upperneck 9.02027 -0.385699 6.62008
head 2.83123 -0.272438 2.79566
rclavicle 1.66979e-014 -2.38542e-015
rhumerus -27.9641 -5.17341 -92.351
rradius 41.5339
rwrist -10.1197
rhand -8.04861 -52.1801
rfingers 7.12502
rthumb 17.8621 -81.3798
lclavicle 1.66979e-014 -2.38542e-015
lhumerus -34.0561 9.45531 78.3037
lradius 14.9346
lwrist -8.91281
lhand -27.0401 -20.6336
lfingers 7.12502
lthumb -0.458859 9.34564
rfemur -52.2488 13.6797 14.8526
rtibia 31.8981
rfoot -24.8367 -6.25707
rtoes -41.1705
lfemur -48.49 -7.88491 -16.148
ltibia 49.7335
lfoot -21.6658 14.5578
ltoes -32.1232
367
root 13.5299 15.9498 12.3358 30.9784 -159.492 359.509
lowerback -11.8078 -2.68693 -3.87874
upperback -0.749807 -3.11996 -1.87816
thorax 5.93124 -1.68349 -0.322861
lowerneck 0.565851 0.315613 -3.62287
upperneck 9.02218 -0.390015 6.63152
head 2.83357 -0.274943 2.80271
rclavicle -4.37326e-014 1.03368e-014
rhumerus -27.6612 -5.20939 -92.323
rradius 40.9426
rwrist -10.0605
rhand -8.22772 -52.3813
rfingers 7.12502
rthumb 17.6897 -81.5967
lclavicle -4.37326e-014 1.03368e-014
lhumerus -33.4408 8.8108 78.533
lradius 15.2656
lwrist -8.31355
lhand -26.6977 -20.3767
lfingers 7.12502
lthumb -0.128087 9.60302
rfemur -52.2139 13.496 14.9301
rtibia 31.8572
rfoot -24.5915 -6.26812
rtoes -41.7732
lfemur -48.8134 -8.32688 -15.6617
ltibia 49.5126
lfoot -21.9671 14.1642
ltoes -29.9063
368
root 13.5263 15.9539 12.3388 30.9494 -159.662 359.412
lowerback -11.6858 -2.72469 -4.0273
upperback -0.70063 -3.15369 -1.9101
thorax 5.92229 -1.70391 -0.274821
lowerneck 0.622388 0.322731 -3.63423
upperneck 9.01274 -0.383839 6.63749
head 2.81966 -0.274045 2.80629
rclavicle 5.36719e-014 -1.82882e-014
rhumerus -27.4132 -5.30151 -92.2532
rradius 40.3325
rwrist -9.91481
rhand -8.73701 -51.7217
rfingers 7.12502
rthumb 17.1996 -80.9805
lclavicle 5.36719e-014 -1.82882e-014
lhumerus -32.9163 8.24917 78.6756
lradius 15.5497
lwrist -7.86793
lhand -26.2429 -19.568
lfingers 7.12502
lthumb 0.311158 10.4115
rfemur -52.214 13.6656 14.7132
rtibia 31.9228
rfoot -24.5238 -6.56693
rtoes -42.1484
lfemur -49.0466 -8.84107 -15.2221
ltibia 49.1344
lfoot -21.7367 14.5399
ltoes -30.9294
